<svg width="1920" height="156" viewBox="0 0 1920 156" fill="none" xmlns="http://www.w3.org/2000/svg">
    <path fill="#63BABA" fill-rule="evenodd" clip-rule="evenodd" d="M759.088 562.998C707.649 514.203 705.505 432.948 754.3 381.509C755.854 379.871 757.451 378.274 759.089 376.72L1177.25 -19.9397C1232.29 -72.1547 1318.58 -72.1547 1373.62 -19.9397C1424.04 27.8853 1427.1 106.895 1381.26 158.45L1569.32 -19.9397C1624.36 -72.1547 1710.64 -72.1547 1765.69 -19.9397C1817.13 28.8543 1819.27 110.109 1770.48 161.548C1768.92 163.186 1767.33 164.783 1765.69 166.337L1347.53 562.995C1292.49 615.21 1206.2 615.21 1151.16 562.995C1100.74 515.17 1097.68 436.16 1143.52 384.605L955.462 562.999C900.417 615.214 814.134 615.214 759.089 562.999L759.088 562.998ZM623.822 45.1023C572.382 -3.6917 570.239 -84.9477 619.033 -136.386C620.587 -138.024 622.184 -139.621 623.822 -141.176L1041.98 -537.839C1097.03 -590.054 1183.31 -590.054 1238.36 -537.839C1289.8 -489.045 1291.94 -407.789 1243.15 -356.351C1241.59 -354.712 1240 -353.115 1238.36 -351.561L820.195 45.1013C765.15 97.3163 678.867 97.3163 623.822 45.1013V45.1023ZM155.027 116.934C103.588 68.1393 101.444 -13.1157 150.238 -64.5547C151.792 -66.1926 153.389 -67.7891 155.028 -69.3427L573.188 -466.004C628.233 -518.219 714.516 -518.219 769.561 -466.004C821.001 -417.21 823.144 -335.954 774.351 -284.516C772.797 -282.878 771.199 -281.281 769.561 -279.727L351.401 116.933C296.356 169.149 210.072 169.149 155.027 116.933V116.934Z"/>
</svg>
