<svg width="1005" height="156" viewBox="0 0 1005 156" fill="none" xmlns="http://www.w3.org/2000/svg">
    <path fill="#63BABA" fill-rule="evenodd" clip-rule="evenodd" d="M299.27 493.428C247.838 442.003 247.832 358.622 299.257 307.191L299.27 307.178L695.928 -89.4245C747.369 -140.858 830.764 -140.858 882.205 -89.4245C933.636 -38.0005 933.642 45.3795 882.218 96.8125C882.213 96.8165 882.208 96.8205 882.205 96.8255L485.545 493.428C434.105 544.861 350.711 544.861 299.27 493.428ZM-145.422 565.253C-196.854 513.829 -196.86 430.447 -145.435 379.016L-145.422 379.003L251.236 -17.6005C302.677 -69.0345 386.072 -69.0345 437.513 -17.6005C488.944 33.8235 488.95 117.205 437.526 168.637L437.513 168.65L40.8529 565.253C-10.5871 616.686 -93.9811 616.686 -145.422 565.253V565.253Z"/>
</svg>
